<svg xmlns="http://www.w3.org/2000/svg" viewBox="0 0 879.87 879.87"><defs><style>.cls-1{fill:#231f20;stroke:#fff;stroke-miterlimit:10;stroke-width:3px;}</style></defs><g id="Layer_2" data-name="Layer 2"><g id="Layer_1-2" data-name="Layer 1"><rect class="cls-1" x="1.5" y="1.5" width="876.87" height="876.87"/><g id="Layer_2-2" data-name="Layer 2"><polygon class="cls-1" points="321.11 550.09 481.18 658.23 481.18 695.61 57.3 698.57 57.3 553.61 321.11 550.09"/></g><polygon class="cls-1" points="515.14 711.86 484.27 633.06 611.34 550.5 638.62 711.86 515.14 711.86"/><polygon class="cls-1" points="484.27 634.2 480.36 622.31 610.96 546.5 638.62 711.86 804.71 711.86 680.99 389.65 572.77 310.18 531.62 281.15 438.06 275.79 418.33 365.13 395.22 464.33 389.58 464.9 401.42 588.62 412.41 619.05 481.18 658.23 484.27 634.2"/><polyline class="cls-1" points="410.27 613.14 359.86 580.59 296.55 555.26 254.45 513.16 238.3 513.16 212.34 527.41 171.82 530.57 153.78 505.56 141.75 497.86 129.72 485.62 119.91 478.02 110.09 462.51 120.22 450.17 126.55 443.2 120.86 434.65 121.49 426.42 135.42 426.42 143.97 420.41 161.06 422.62 181.74 420.41"/><polygon class="cls-1" points="117.3 449.11 156.87 452.96 197.14 457.51 209.4 466.62 222.35 476.44 241.26 470.12 241.26 461.01 212.9 459.26 169.48 444.56 130.96 439.94 117.3 445.26 117.3 449.11"/><polygon class="cls-1" points="163.66 550.5 169.34 549.61 172.02 549.2 206.46 543.82 241.26 542.45 280.41 546.47 310.54 550.5 310.54 564.01 305.06 577.37 293.08 593.46 258.5 593.46 179.28 593.46 174.99 577.37 169.48 565.04 163.66 550.5"/><polyline class="cls-1" points="310.54 551.71 303.56 552.3 270.99 552.9 251.85 553.61 208.47 553.61 190.76 553.61 177.57 552.3 169.48 551 166.28 550.09"/><polygon class="cls-1" points="199.01 461.04 216.51 455.91 248.5 458.47 242.47 480.66 261.18 486.99 295.29 497.86 326.98 461.04 387.04 464.36 395.22 464.33 435.94 278.43 413.9 275.79 405.45 256.1 380.7 258.82 354.6 220.18 331.81 220.18 304.95 204.49 268.12 196.04 226.47 199.96 185.12 242.52 129.89 268.47 114.19 296.85 122.95 319.48 151.92 335.48 164 393.43 181.2 404.6 182.41 440.21 189.35 455.3 199.01 461.04"/></g></g></svg>